<?xml version="1.0" encoding="UTF-8"?>
<svg id="Layer_1" data-name="Layer 1" xmlns="http://www.w3.org/2000/svg" version="1.1" viewBox="0 0 1280 720">
  <defs>
    <style>
      .cls-1 {
        fill: #000;
        stroke-width: 0px;
      }
    </style>
  </defs>
  <path class="cls-1" d="M619.74,328.01c14.61,0,29.21,0,43.82,0,.09.03.18.08.27.1,4.5.76,7.46,4.23,7.46,8.8,0,13.76,0,27.51,0,41.27,0,5.19-3.76,8.95-8.95,8.95-4.92,0-9.84,0-14.76,0h-.59v-21.01h8.99c.39-2.32.76-4.6,1.16-6.95h-10.18c0-2.25,0-4.44,0-6.63,0-2.3,1.45-3.74,3.75-3.74,2.04,0,4.07,0,6.11,0,.2,0,.4,0,.6,0v-6.93c-.22,0-.4,0-.59,0-2.63,0-5.27,0-7.9,0-5.11.01-8.88,3.78-8.89,8.89,0,2.6,0,5.19,0,7.79,0,.2,0,.4,0,.65h-6.88v6.94h6.85v20.99c-.16,0-.29,0-.42,0-6.3,0-12.61.02-18.91-.02-.92,0-1.89-.17-2.76-.46-3.68-1.23-5.9-4.47-5.9-8.47,0-13.72,0-27.44,0-41.15,0-.23,0-.46.01-.69.24-3.36,1.82-5.87,4.83-7.39.89-.45,1.92-.63,2.88-.93ZM650.44,383.64c.16,0,.25.02.35.02,3.9,0,7.8.02,11.7,0,3.1-.02,5.33-2.26,5.33-5.38.01-13.79,0-27.59,0-41.38,0-3.18-2.24-5.41-5.42-5.41-13.84,0-27.67,0-41.51,0-3.18,0-5.42,2.23-5.42,5.41,0,13.79-.01,27.59.02,41.38,0,.8.18,1.67.52,2.39.94,2.02,2.64,2.98,4.85,2.99,5.09.02,10.19,0,15.28,0,.13,0,.26-.01.39-.02v-14.09h-6.85v-13.84h6.89c0-1.7,0-3.33,0-4.96,0-1.4.18-2.76.65-4.08,1.81-5.1,6.25-8.24,11.65-8.26,3.82-.01,7.65,0,11.47,0h.53v13.87h-10.41v3.46h10.76c-.77,4.62-1.53,9.2-2.3,13.84h-8.48v14.06Z"/>
</svg>