<?xml version="1.0" encoding="UTF-8"?>
<svg id="Layer_1" data-name="Layer 1" xmlns="http://www.w3.org/2000/svg" version="1.1" viewBox="0 0 1280 720">
  <defs>
    <style>
      .cls-1 {
        fill: #000;
        stroke-width: 0px;
      }
    </style>
  </defs>
  <path class="cls-1" d="M674.22,345.67v27.71c-.04.24-.08.48-.11.72-.15,1.36-.21,2.72-.44,4.06-.73,4.32-2.58,8.07-5.9,11.01-3.6,3.19-7.93,4.46-12.61,4.78-1.63.11-3.26.18-4.88.27h-20.71c-.42-.04-.84-.1-1.26-.11-2.76-.07-5.51-.18-8.2-.84-5.67-1.39-9.88-4.61-12.39-9.93-1.56-3.31-2.03-6.86-2.07-10.47-.08-7.42-.14-14.84-.11-22.26.01-3.38.05-6.77.78-10.1,1.29-5.89,4.51-10.32,10.02-12.93,3.26-1.55,6.77-2.01,10.33-2.09,9.5-.23,19-.34,28.5.12,2.77.13,5.47.67,8.01,1.82,6.3,2.86,9.62,7.92,10.65,14.62.18,1.19.28,2.39.41,3.59ZM639.9,388.15s0-.07,0-.11c1.82,0,3.63.05,5.45-.01,3.92-.14,7.86-.09,11.74-.58,5.3-.67,8.87-3.73,10.17-9,.52-2.11.7-4.34.74-6.52.12-6.95.14-13.9.1-20.85-.02-2.77-.15-5.56-.5-8.31-.7-5.55-4.15-9.31-9.64-10.41-2.35-.47-4.8-.61-7.21-.65-6.41-.09-12.82-.11-19.23-.04-3.06.04-6.16.11-9.17.6-5.18.83-8.61,3.9-9.78,9.08-.52,2.32-.67,4.75-.72,7.13-.13,5.58-.16,11.17-.1,16.75.04,3.83.15,7.67.51,11.48.37,3.81,2.15,6.95,5.5,9.02,2.23,1.38,4.73,1.93,7.3,2.03,4.95.18,9.9.26,14.85.38Z"/>
  <path class="cls-1" d="M639.87,377.5c-9.8-.06-17.73-8.03-17.66-17.75.07-9.8,8.05-17.72,17.77-17.63,9.82.09,17.72,8.06,17.61,17.78-.11,9.81-8.02,17.67-17.72,17.61ZM628.45,359.81c0,6.35,5.1,11.45,11.45,11.46,6.35,0,11.46-5.08,11.47-11.44.02-6.37-5.11-11.5-11.49-11.49-6.34,0-11.44,5.12-11.44,11.47Z"/>
  <path class="cls-1" d="M662.42,341.43c0,2.3-1.86,4.13-4.17,4.11-2.25-.02-4.08-1.88-4.07-4.15,0-2.27,1.84-4.09,4.11-4.1,2.31,0,4.14,1.82,4.13,4.14Z"/>
</svg>