<?xml version="1.0" encoding="UTF-8"?>
<svg id="Layer_1" data-name="Layer 1" xmlns="http://www.w3.org/2000/svg" version="1.1" viewBox="0 0 113 28.8">
  <defs>
    <style>
      .cls-1 {
        isolation: isolate;
      }

      .cls-2 {
        fill: #fff;
        stroke-width: 0px;
      }
    </style>
  </defs>
  <g class="cls-1">
    <g class="cls-1">
      <path class="cls-2" d="M7.4,22.2c-2,0-3.6-.5-4.8-1.5-1.2-1-1.8-2.4-1.8-4.2v-1.7h3.7v1.7c0,.8.2,1.4.7,1.9.5.5,1.2.7,2,.7s1.4-.2,1.9-.7c.5-.4.7-1.1.7-1.9V6.9h-3.3v-3.1h9.2v3.1h-2.2v9.5c0,1.9-.5,3.3-1.6,4.3-1.1,1-2.6,1.5-4.5,1.5Z"/>
      <path class="cls-2" d="M25.4,22.2c-1.4,0-2.6-.3-3.7-.8-1.1-.5-1.9-1.3-2.6-2.2s-.9-2.1-.9-3.5v-.4c0-1.4.3-2.5.9-3.5s1.5-1.7,2.6-2.2c1.1-.5,2.3-.8,3.7-.8s2.6.3,3.7.8c1.1.5,1.9,1.3,2.6,2.2.6,1,.9,2.1.9,3.5v.4c0,1.4-.3,2.5-.9,3.5-.6,1-1.5,1.7-2.6,2.2-1.1.5-2.3.8-3.7.8ZM25.4,19.3c1.1,0,2-.3,2.7-1,.7-.6,1.1-1.6,1.1-2.8v-.3c0-1.2-.3-2.1-1-2.8s-1.6-1-2.7-1-2,.3-2.7,1c-.7.6-1.1,1.6-1.1,2.8v.3c0,1.2.4,2.1,1.1,2.8.7.6,1.6,1,2.7,1Z"/>
      <path class="cls-2" d="M41.5,22.2c-1.8,0-3.3-.4-4.4-1.1s-1.8-1.7-2.1-3.1l3.2-.8c.1.6.3,1.1.7,1.4s.7.6,1.1.7c.5.1.9.2,1.5.2.8,0,1.4-.1,1.8-.4.4-.3.6-.6.6-1s-.2-.7-.6-.9c-.4-.2-1-.4-1.8-.5h-.8c-1-.3-1.8-.5-2.6-.8-.8-.3-1.4-.7-1.9-1.2-.5-.5-.7-1.2-.7-2.1,0-1.3.5-2.2,1.5-2.9,1-.7,2.3-1,3.9-1s2.8.3,3.8.9c1,.6,1.7,1.5,2,2.5l-3.2.9c-.1-.6-.4-1.1-.9-1.4s-1-.4-1.7-.4-1.2.1-1.5.3c-.4.2-.5.5-.5.9s.2.7.6.9c.4.2.9.3,1.5.4h.8c1,.3,2,.5,2.8.8s1.5.7,2,1.2c.5.5.7,1.2.7,2.1,0,1.3-.5,2.4-1.6,3.1-1,.7-2.4,1.1-4.2,1.1Z"/>
      <path class="cls-2" d="M55.6,22c-1.1,0-2-.2-2.8-.7s-1.4-1.1-1.9-1.9c-.4-.8-.7-1.7-.7-2.8v-7.6h3.5v7.3c0,1,.3,1.7.8,2.2.5.5,1.2.7,2.2.7s1.9-.3,2.5-1c.6-.7.9-1.6.9-2.8v-6.5h3.5v12.7h-3.4v-1.7h-.5c-.2.4-.6.8-1.2,1.3-.6.4-1.5.6-2.8.6Z"/>
      <path class="cls-2" d="M73.7,22.2c-1.4,0-2.6-.3-3.6-.8-1-.5-1.9-1.3-2.4-2.3-.6-1-.9-2.1-.9-3.5v-.3c0-1.3.3-2.5.9-3.5.6-1,1.4-1.7,2.4-2.3,1-.5,2.2-.8,3.6-.8s2.5.3,3.5.8c1,.6,1.8,1.3,2.3,2.3.6,1,.8,2.1.8,3.4v1.1h-10c0,.9.4,1.6,1.1,2.1.7.5,1.5.8,2.4.8s1.7-.2,2.2-.6c.5-.4.8-.8,1.1-1.3l2.9,1.4c-.3.4-.6.9-1.1,1.4-.5.5-1.1,1-2,1.3-.8.4-1.8.6-3.1.6ZM70.3,14h6.4c0-.7-.4-1.3-1-1.8s-1.3-.7-2.2-.7-1.7.2-2.2.7c-.6.4-.9,1-1,1.8ZM71.5,7.6l2.1-3.8h3.9l-2.9,3.8h-3Z"/>
      <path class="cls-2" d="M90.3,21.8V3.8h8c1.2,0,2.3.2,3.2.7.9.5,1.7,1.1,2.2,1.9.5.8.8,1.8.8,2.9v.4c0,1.1-.3,2.1-.8,2.9-.5.8-1.3,1.5-2.2,1.9-.9.5-2,.7-3.2.7h-4.3v6.6h-3.7ZM94,12.2h4c.9,0,1.6-.2,2.1-.7.5-.4.8-1.1.8-1.8v-.3c0-.8-.3-1.4-.8-1.8-.5-.4-1.2-.7-2.1-.7h-4v5.2Z"/>
    </g>
    <g class="cls-1">
      <path class="cls-2" d="M109.3,22.2c-.7,0-1.4-.2-1.9-.7s-.8-1-.8-1.8.3-1.3.8-1.8,1.1-.7,1.9-.7,1.4.2,1.9.7c.5.5.7,1,.7,1.8s-.2,1.3-.7,1.8c-.5.5-1.1.7-1.9.7Z"/>
    </g>
  </g>
</svg>