<?xml version="1.0" encoding="UTF-8"?>
<svg id="Layer_1" data-name="Layer 1" xmlns="http://www.w3.org/2000/svg" version="1.1" viewBox="0 0 1280 720">
  <defs>
    <style>
      .cls-1 {
        fill: #000;
        stroke-width: 0px;
      }
    </style>
  </defs>
  <path class="cls-1" d="M613.8,384.1c0-15.4,0-30.8,0-46.2,0-.1,0-.2.1-.4.6-3.1,3.3-5.4,6.5-5.4,14.7,0,29.4,0,44,0,3.6,0,6.6,3,6.6,6.6,0,14.9,0,29.7,0,44.6,0,3.6-3,6.6-6.6,6.6-14.7,0-29.4,0-44,0-2.2,0-3.9-1-5.2-2.7-.7-.9-1.1-2-1.4-3.1ZM618.3,361c0,7.3,0,14.6,0,21.8,0,1.7.9,2.6,2.6,2.6,14.4,0,28.8,0,43.1,0,1.7,0,2.6-.9,2.6-2.6,0-14.6,0-29.1,0-43.7,0-1.7-.9-2.6-2.6-2.6-14.4,0-28.8,0-43.1,0-1.7,0-2.6.9-2.6,2.6,0,7.3,0,14.6,0,21.8Z"/>
  <path class="cls-1" d="M636.6,354.4h7.5v3.2c0,0,.1,0,.1,0,1.5-2.4,3.8-3.5,6.5-3.6,1.4,0,2.8,0,4.1.4,3.3.7,5,3.1,5.5,6.3.3,2,.4,4,.5,6,0,4.2,0,8.4,0,12.6v.6h-7.7c0-.2,0-.4,0-.6,0-4.2,0-8.4,0-12.6,0-.8,0-1.6-.2-2.4-.4-2.6-2.2-3.8-4.8-3.4-2.1.3-3.4,1.6-3.8,3.9-.2.9-.2,1.8-.2,2.7,0,4,0,7.9,0,11.9,0,.2,0,.4,0,.6h-7.6v-25.4Z"/>
  <path class="cls-1" d="M623.9,354.4h7.8v25.4h-7.8v-25.4Z"/>
  <path class="cls-1" d="M623.3,346.2c0-2.5,2-4.6,4.6-4.6,2.5,0,4.6,2,4.6,4.6,0,2.8-2.4,4.7-4.6,4.7-2.2,0-4.6-1.9-4.6-4.7Z"/>
</svg>