<?xml version="1.0" encoding="UTF-8"?>
<svg id="Layer_1" data-name="Layer 1" xmlns="http://www.w3.org/2000/svg" version="1.1" viewBox="0 0 1280 720">
  <defs>
    <style>
      .cls-1 {
        fill: #000;
        stroke-width: 0px;
      }
    </style>
  </defs>
  <path class="cls-1" d="M652.81,328.01c.03.73.06,1.46.09,2.19.08,2.36.71,4.55,1.95,6.57.83,1.34,1.86,2.47,3.09,3.46.97.78,2.08,1.23,3.19,1.73,1.38.63,2.83.67,4.28.75.56.03,1.12.07,1.72.11v13c-5.02.16-9.77-.76-14.22-3.46,0,.34,0,.56,0,.77,0,5.84.04,11.68,0,17.53-.02,3.01-.72,5.88-2.05,8.6-.94,1.92-2.13,3.65-3.63,5.18-1.35,1.38-2.86,2.5-4.53,3.46-1.52.88-3.16,1.36-4.84,1.74-.74.17-1.49.31-2.23.47h-2.94c-.31-.05-.64-.06-.94-.15-1.81-.54-3.67-.96-5.4-1.69-1.81-.77-3.4-1.98-4.8-3.36-1.95-1.91-3.5-4.12-4.53-6.65-1.57-3.84-1.99-7.82-1.23-11.91.6-3.21,1.85-6.13,3.88-8.72.94-1.2,1.98-2.28,3.16-3.25,2.25-1.85,4.78-2.99,7.61-3.66,2.36-.56,4.68-.48,7.04-.17.31.04.6.19.94.3v13.65c-.64-.23-1.28-.48-1.92-.7-1.43-.5-2.88-.59-4.32-.06-2.84,1.04-4.62,3.99-4.3,7.12.23,2.24,1.24,4,3.2,5.23,1.94,1.22,3.95,1.27,5.88.25,2.33-1.22,3.5-3.31,3.62-5.96.01-.26,0-.53,0-.79,0-13.86,0-27.71.01-41.57,4.07,0,8.14,0,12.21,0ZM635.03,353.79c-1.02.12-1.96.21-2.9.35-1.91.27-3.72.79-5.38,1.83-1.49.93-2.81,2.03-3.96,3.36-2.16,2.5-3.4,5.39-3.81,8.64-.64,5.16.77,9.72,4.23,13.6,1.22,1.36,2.69,2.45,4.3,3.3,1.97,1.04,4.14,1.43,6.34,1.6.67.05,1.37-.12,2.05-.19,3.04-.32,5.68-1.5,7.99-3.52,1.68-1.47,2.99-3.19,3.97-5.19,1.08-2.2,1.66-4.53,1.67-6.97.02-8.2-.01-16.4-.02-24.6,0-.22,0-.43,0-.75.37.32.64.57.93.79,1.47,1.12,2.92,2.28,4.44,3.32.86.58,1.83,1.02,2.8,1.41,1.93.78,3.96,1.18,6.06,1.29v-5.82c-1.58-.08-3.04-.45-4.41-1.13-.9-.44-1.78-.93-2.64-1.46-2.14-1.32-3.7-3.2-4.94-5.36-.87-1.51-1.47-3.13-1.84-4.83-.13-.6-.22-1.21-.33-1.8h-5.57c0,.28,0,.53,0,.77,0,12.44,0,24.88,0,37.33,0,1.42-.18,2.81-.66,4.16-.98,2.74-2.78,4.78-5.41,5.93-3.5,1.53-7.56.85-10.48-2.2-1.41-1.47-2.32-3.18-2.72-5.16-.78-3.88.2-7.3,2.99-10.09,1.33-1.34,2.98-2.29,4.93-2.51.8-.09,1.6-.12,2.42-.18v-5.93Z"/>
</svg>