<?xml version="1.0" encoding="UTF-8"?>
<svg id="Layer_1" data-name="Layer 1" xmlns="http://www.w3.org/2000/svg" version="1.1" viewBox="0 0 1280 720">
  <defs>
    <style>
      .cls-1 {
        fill: #000;
        stroke-width: 0px;
      }
    </style>
  </defs>
  <path class="cls-1" d="M647.16,330.72c9.25.33,18.49.65,27.74,1.01,2.54.1,4.98.69,7.19,1.99.77.45,1.48,1.01,2.14,1.61,1.35,1.23,2.17,2.78,2.86,4.47,1.48,3.61,1.41,7.42,1.58,11.19.33,6.95.32,13.9-.15,20.84-.15,2.26-.38,4.55-.93,6.73-.56,2.22-1.5,4.36-3.26,5.99-2.17,2.01-4.71,3.33-7.66,3.47-8.32.4-16.64.89-24.96.91-10.17.03-20.34-.36-30.51-.64-2.43-.07-4.88-.35-7.19-1.22-1.91-.72-3.56-1.79-4.92-3.36-.92-1.06-1.42-2.3-1.99-3.54-1.19-2.61-1.29-5.41-1.45-8.18-.47-7.97-.49-15.95.01-23.91.14-2.18.38-4.39.91-6.51.54-2.17,1.43-4.28,3.11-5.9,2.16-2.09,4.72-3.52,7.72-3.69,7.74-.42,15.49-.68,23.24-.97,2.17-.08,4.34-.01,6.51-.01,0-.09,0-.18,0-.26ZM648.87,335.31c-7.22.15-12.58.23-17.94.4-4.01.13-8.03.28-12.03.59-4,.31-6.74,2.28-7.54,6.39-.55,2.83-.92,5.72-1.04,8.59-.29,6.86-.47,13.73.28,20.58.22,2.05.44,4.13.89,6.14.56,2.46,2.08,4.23,4.57,4.93,1.31.37,2.67.67,4.03.74,4.98.27,9.96.47,14.95.64,13.32.45,26.63.16,39.93-.61,1.95-.11,3.81-.57,5.35-1.82,1.27-1.03,1.94-2.47,2.43-4.02.91-2.9.96-5.92,1.11-8.88.35-6.96.49-13.93-.26-20.88-.22-2.05-.44-4.12-.89-6.14-.55-2.5-2.16-4.19-4.59-5.05-1.94-.69-3.96-.74-5.97-.81-8.37-.28-16.75-.57-23.27-.79Z"/>
  <path class="cls-1" d="M636.46,359.2c0-2.93.1-5.86-.03-8.77-.12-2.78,2.79-4.29,5.07-3.18,1.76.86,3.51,1.75,5.26,2.63,4.08,2.05,8.17,4.09,12.24,6.15.64.32,1.32.64,1.83,1.13,1.44,1.39.92,3.87-.51,4.57-2.34,1.14-4.65,2.35-6.98,3.52-1.33.67-2.67,1.32-4.01,1.98-2.6,1.29-5.21,2.58-7.81,3.88-2.21,1.11-5.24-.35-5.09-3.22.15-2.89.03-5.8.03-8.7ZM655.17,359.26c-4.67-2.35-9.17-4.61-13.72-6.9v13.68c4.56-2.25,9.04-4.47,13.72-6.78Z"/>
</svg>